<?xml version="1.0" encoding="UTF-8" standalone="no"?>
<svg
   xmlns:dc="http://purl.org/dc/elements/1.1/"
   xmlns:cc="http://creativecommons.org/ns#"
   xmlns:rdf="http://www.w3.org/1999/02/22-rdf-syntax-ns#"
   xmlns:svg="http://www.w3.org/2000/svg"
   xmlns="http://www.w3.org/2000/svg"
   xmlns:sodipodi="http://sodipodi.sourceforge.net/DTD/sodipodi-0.dtd"
   xmlns:inkscape="http://www.inkscape.org/namespaces/inkscape"
   aria-hidden="true"
   data-prefix="fas"
   data-icon="times"
   class="svg-inline--fa fa-times fa-w-11"
   role="img"
   viewBox="0 0 500 500"
   id="svg2"
   version="1.1"
   inkscape:version="0.91 r13725"
   sodipodi:docname="cross.svg"
   width="500"
   height="500">
  <metadata
     id="metadata10">
    <rdf:RDF>
      <cc:Work
         rdf:about="">
        <dc:format>image/svg+xml</dc:format>
        <dc:type
           rdf:resource="http://purl.org/dc/dcmitype/StillImage" />
        <dc:title></dc:title>
      </cc:Work>
    </rdf:RDF>
  </metadata>
  <defs
     id="defs8" />
  <sodipodi:namedview
     pagecolor="#ffffff"
     bordercolor="#666666"
     borderopacity="1"
     objecttolerance="10"
     gridtolerance="10"
     guidetolerance="10"
     inkscape:pageopacity="0"
     inkscape:pageshadow="2"
     inkscape:window-width="1440"
     inkscape:window-height="856"
     id="namedview6"
     showgrid="false"
     fit-margin-top="0"
     fit-margin-left="0"
     fit-margin-right="0"
     fit-margin-bottom="0"
     inkscape:zoom="0.921875"
     inkscape:cx="75.118644"
     inkscape:cy="181.30701"
     inkscape:window-x="0"
     inkscape:window-y="0"
     inkscape:window-maximized="0"
     inkscape:current-layer="svg2" />
  <path
     d="M 325.81818,250 439.53409,136.2841 c 13.95455,-13.95455 13.95455,-36.579553 0,-50.545463 l -25.27273,-25.27272 c -13.95455,-13.954555 -36.57955,-13.954555 -50.54545,0 L 250,174.18183 136.28409,60.465917 c -13.95455,-13.954555 -36.579546,-13.954555 -50.545455,0 l -25.272727,25.27272 c -13.954546,13.95455 -13.954546,36.579553 0,50.545463 L 174.18182,250 60.465908,363.71591 c -13.954546,13.95455 -13.954546,36.57955 0,50.54545 l 25.272727,25.27273 c 13.954545,13.95455 36.590905,13.95455 50.545455,0 L 250,325.81819 363.71591,439.53409 c 13.95454,13.95455 36.5909,13.95455 50.54545,0 l 25.27273,-25.27273 c 13.95455,-13.95454 13.95455,-36.57954 0,-50.54545 L 325.81818,250 Z"
     id="path4"
     inkscape:connector-curvature="0"
     style="fill:currentColor" />
</svg>
